<svg width="30" height="30" viewBox="0 0 30 30" fill="none" xmlns="http://www.w3.org/2000/svg">
<g clip-path="url(#clip0_221_269)">
<path d="M16.8747 8.12487C16.8747 8.62215 16.6772 9.09907 16.3255 9.4507C15.9739 9.80233 15.497 9.99987 14.9997 9.99987C14.5024 9.99987 14.0255 9.80233 13.6739 9.4507C13.3222 9.09907 13.1247 8.62215 13.1247 8.12487C13.1247 7.62759 13.3222 7.15068 13.6739 6.79905C14.0255 6.44741 14.5024 6.24987 14.9997 6.24987C15.497 6.24987 15.9739 6.44741 16.3255 6.79905C16.6772 7.15068 16.8747 7.62759 16.8747 8.12487V8.12487ZM29.9997 23.7499V15.4249C30.0463 11.5717 28.6336 7.84349 26.0451 4.98883C23.4566 2.13418 19.8841 0.364417 16.0447 0.0348702C13.9018 -0.115058 11.7516 0.197045 9.73974 0.950061C7.72787 1.70308 5.90121 2.87944 4.38334 4.39956C2.86548 5.91967 1.69183 7.74808 0.941793 9.76106C0.19176 11.7741 -0.117154 13.9247 0.0359503 16.0674C0.58845 24.0099 7.6022 29.9999 16.3535 29.9999H23.7497C25.4067 29.9979 26.9953 29.3388 28.1669 28.1671C29.3386 26.9954 29.9977 25.4069 29.9997 23.7499V23.7499ZM15.8747 2.52987C19.0828 2.81367 22.0646 4.30101 24.2211 6.69306C26.3775 9.08512 27.5489 12.2046 27.4997 15.4249V23.7499C27.4997 24.7444 27.1046 25.6983 26.4014 26.4015C25.6981 27.1048 24.7443 27.4999 23.7497 27.4999H16.3535C8.81095 27.4999 2.9997 22.6249 2.53095 15.8949C2.40789 14.1806 2.63967 12.4594 3.2118 10.8387C3.78394 9.21805 4.68414 7.73278 5.85617 6.47571C7.02819 5.21864 8.44686 4.21676 10.0235 3.53268C11.6002 2.8486 13.301 2.49701 15.0197 2.49987C15.3035 2.49987 15.5897 2.51112 15.8747 2.52987ZM17.4997 22.4999V14.9999C17.4997 14.3368 17.2363 13.7009 16.7675 13.2321C16.2986 12.7633 15.6627 12.4999 14.9997 12.4999H13.7497C13.4182 12.4999 13.1002 12.6316 12.8658 12.866C12.6314 13.1004 12.4997 13.4184 12.4997 13.7499C12.4997 14.0814 12.6314 14.3993 12.8658 14.6338C13.1002 14.8682 13.4182 14.9999 13.7497 14.9999H14.9997V22.4999C14.9997 22.8314 15.1314 23.1493 15.3658 23.3838C15.6002 23.6182 15.9182 23.7499 16.2497 23.7499C16.5812 23.7499 16.8992 23.6182 17.1336 23.3838C17.368 23.1493 17.4997 22.8314 17.4997 22.4999Z" fill="black"/>
</g>
<defs>
<clipPath id="clip0_221_269">
<rect width="30" height="30" fill="white"/>
</clipPath>
</defs>
</svg>
