<svg width="44" height="38" viewBox="0 0 44 38" fill="none" xmlns="http://www.w3.org/2000/svg">
<path d="M34.8333 17.4167H16.5L22.5317 12.2075C22.7035 12.0603 22.8399 11.8852 22.933 11.6923C23.026 11.4993 23.074 11.2924 23.074 11.0834C23.074 10.8743 23.026 10.6674 22.933 10.4745C22.8399 10.2815 22.7035 10.1064 22.5317 9.9592C22.1882 9.6643 21.7235 9.49878 21.2392 9.49878C20.7548 9.49878 20.2902 9.6643 19.9467 9.9592L12.0817 16.7675C11.3931 17.3587 11.0041 18.1615 11 19V19C11.0089 19.833 11.3975 20.6294 12.0817 21.2167L19.9467 28.025C20.1176 28.1716 20.3203 28.2877 20.5432 28.3666C20.7661 28.4455 21.0048 28.4858 21.2456 28.4851C21.4865 28.4843 21.7249 28.4426 21.9471 28.3623C22.1694 28.282 22.3711 28.1647 22.5408 28.0171C22.7106 27.8695 22.845 27.6944 22.9364 27.5019C23.0278 27.3094 23.0744 27.1033 23.0735 26.8952C23.0727 26.6872 23.0244 26.4813 22.9314 26.2894C22.8384 26.0975 22.7026 25.9233 22.5317 25.7767L16.5 20.5834H34.8333C35.3196 20.5834 35.7859 20.4165 36.1297 20.1196C36.4735 19.8227 36.6667 19.4199 36.6667 19C36.6667 18.5801 36.4735 18.1774 36.1297 17.8804C35.7859 17.5835 35.3196 17.4167 34.8333 17.4167Z" fill="black"/>
</svg>
