<svg width="25" height="25" viewBox="0 0 25 25" fill="none" xmlns="http://www.w3.org/2000/svg">
<path d="M17.7083 9.37498V7.29165C17.7083 5.91031 17.1596 4.58555 16.1828 3.6088C15.2061 2.63205 13.8813 2.08331 12.5 2.08331C11.1186 2.08331 9.79386 2.63205 8.81711 3.6088C7.84036 4.58555 7.29163 5.91031 7.29163 7.29165V9.37498C6.46282 9.37498 5.66797 9.70422 5.08192 10.2903C4.49587 10.8763 4.16663 11.6712 4.16663 12.5V19.7916C4.16663 20.6204 4.49587 21.4153 5.08192 22.0014C5.66797 22.5874 6.46282 22.9166 7.29163 22.9166H17.7083C18.5371 22.9166 19.332 22.5874 19.918 22.0014C20.5041 21.4153 20.8333 20.6204 20.8333 19.7916V12.5C20.8333 11.6712 20.5041 10.8763 19.918 10.2903C19.332 9.70422 18.5371 9.37498 17.7083 9.37498ZM9.37496 7.29165C9.37496 6.46284 9.7042 5.66799 10.2903 5.08194C10.8763 4.49589 11.6712 4.16665 12.5 4.16665C13.3288 4.16665 14.1236 4.49589 14.7097 5.08194C15.2957 5.66799 15.625 6.46284 15.625 7.29165V9.37498H9.37496V7.29165ZM18.75 19.7916C18.75 20.0679 18.6402 20.3329 18.4449 20.5282C18.2495 20.7236 17.9846 20.8333 17.7083 20.8333H7.29163C7.01536 20.8333 6.75041 20.7236 6.55506 20.5282C6.35971 20.3329 6.24996 20.0679 6.24996 19.7916V12.5C6.24996 12.2237 6.35971 11.9588 6.55506 11.7634C6.75041 11.5681 7.01536 11.4583 7.29163 11.4583H17.7083C17.9846 11.4583 18.2495 11.5681 18.4449 11.7634C18.6402 11.9588 18.75 12.2237 18.75 12.5V19.7916Z" fill="#022C4E"/>
</svg>
