<svg width="30" height="30" viewBox="0 0 30 30" fill="none" xmlns="http://www.w3.org/2000/svg">
<g clip-path="url(#clip0_381_555)">
<path d="M15 30C12.0333 30 9.13319 29.1203 6.66645 27.4721C4.19972 25.8238 2.27713 23.4812 1.14181 20.7403C0.00649929 17.9994 -0.290551 14.9834 0.288228 12.0737C0.867006 9.16394 2.29562 6.49119 4.39341 4.39341C6.49119 2.29562 9.16394 0.867006 12.0737 0.288228C14.9834 -0.290551 17.9994 0.00649929 20.7403 1.14181C23.4812 2.27713 25.8238 4.19972 27.4721 6.66645C29.1203 9.13319 30 12.0333 30 15C29.9957 18.9769 28.414 22.7897 25.6019 25.6019C22.7897 28.414 18.9769 29.9957 15 30V30ZM15 2.50001C12.5277 2.50001 10.111 3.23312 8.05538 4.60664C5.99976 5.98015 4.39761 7.93239 3.45151 10.2165C2.50542 12.5005 2.25788 15.0139 2.74019 17.4386C3.22251 19.8634 4.41302 22.0907 6.16117 23.8388C7.90933 25.587 10.1366 26.7775 12.5614 27.2598C14.9861 27.7421 17.4995 27.4946 19.7836 26.5485C22.0676 25.6024 24.0199 24.0002 25.3934 21.9446C26.7669 19.889 27.5 17.4723 27.5 15C27.4964 11.6859 26.1782 8.50861 23.8348 6.16519C21.4914 3.82178 18.3141 2.50365 15 2.50001V2.50001Z" fill="#3E3557"/>
<path d="M16.2496 18.7495H13.7496V17.8208C13.7311 16.9388 13.9491 16.0679 14.3808 15.2986C14.8124 14.5293 15.4422 13.8896 16.2046 13.4458C16.6664 13.1914 17.036 12.7975 17.2605 12.3204C17.485 11.8434 17.553 11.3075 17.4546 10.7895C17.3572 10.296 17.1149 9.84275 16.7587 9.48762C16.4024 9.13249 15.9484 8.89162 15.4546 8.79576C15.0942 8.72906 14.7236 8.7424 14.369 8.83484C14.0144 8.92727 13.6844 9.09654 13.4025 9.33066C13.1206 9.56477 12.8935 9.85801 12.7375 10.1896C12.5815 10.5212 12.5003 10.883 12.4996 11.2495H9.9996C9.99992 10.3676 10.2335 9.50155 10.6765 8.73908C11.1196 7.9766 11.7565 7.34488 12.5225 6.90799C13.2886 6.47111 14.1565 6.24459 15.0384 6.25143C15.9202 6.25827 16.7846 6.49822 17.5437 6.94694C18.3029 7.39566 18.9299 8.03718 19.3611 8.80643C19.7923 9.57569 20.0124 10.4453 19.999 11.3271C19.9856 12.2088 19.7393 13.0714 19.285 13.8272C18.8307 14.583 18.1845 15.2053 17.4121 15.6308C17.043 15.8615 16.7413 16.1854 16.5372 16.5699C16.3331 16.9543 16.2339 17.3858 16.2496 17.8208V18.7495Z" fill="#3E3557"/>
<path d="M16.2496 21.2496H13.7496V23.7496H16.2496V21.2496Z" fill="#3E3557"/>
</g>
<defs>
<clipPath id="clip0_381_555">
<rect width="30" height="30" fill="white"/>
</clipPath>
</defs>
</svg>
