<svg width="40" height="40" viewBox="0 0 40 40" fill="none" xmlns="http://www.w3.org/2000/svg">
<g clip-path="url(#clip0_154_266)">
<path d="M20 0C16.0444 0 12.1776 1.17298 8.8886 3.37061C5.59962 5.56824 3.03617 8.69181 1.52242 12.3463C0.00866572 16.0009 -0.387401 20.0222 0.384303 23.9018C1.15601 27.7814 3.06082 31.3451 5.85787 34.1421C8.65492 36.9392 12.2186 38.844 16.0982 39.6157C19.9778 40.3874 23.9992 39.9913 27.6537 38.4776C31.3082 36.9638 34.4318 34.4004 36.6294 31.1114C38.827 27.8224 40 23.9556 40 20C39.9943 14.6974 37.8853 9.61368 34.1358 5.8642C30.3863 2.11471 25.3026 0.00573514 20 0V0ZM20 36.6667C16.7037 36.6667 13.4813 35.6892 10.7405 33.8578C7.99969 32.0265 5.86348 29.4235 4.60202 26.3781C3.34056 23.3326 3.0105 19.9815 3.65359 16.7485C4.29667 13.5155 5.88402 10.5458 8.2149 8.21489C10.5458 5.88401 13.5155 4.29667 16.7485 3.65358C19.9815 3.01049 23.3326 3.34055 26.3781 4.60201C29.4235 5.86347 32.0265 7.99968 33.8578 10.7405C35.6892 13.4813 36.6667 16.7036 36.6667 20C36.6618 24.4188 34.9043 28.6552 31.7798 31.7798C28.6552 34.9043 24.4188 36.6618 20 36.6667Z" fill="black"/>
<path d="M19.9998 16.6672H18.3332C17.8911 16.6672 17.4672 16.8428 17.1547 17.1554C16.8421 17.468 16.6665 17.8919 16.6665 18.3339C16.6665 18.7759 16.8421 19.1999 17.1547 19.5124C17.4672 19.825 17.8911 20.0006 18.3332 20.0006H19.9998V30.0006C19.9998 30.4426 20.1754 30.8665 20.488 31.1791C20.8005 31.4916 21.2245 31.6672 21.6665 31.6672C22.1085 31.6672 22.5324 31.4916 22.845 31.1791C23.1576 30.8665 23.3332 30.4426 23.3332 30.0006V20.0006C23.3332 19.1165 22.982 18.2687 22.3568 17.6435C21.7317 17.0184 20.8839 16.6672 19.9998 16.6672Z" fill="black"/>
<path d="M20 13.3328C21.3807 13.3328 22.5 12.2135 22.5 10.8328C22.5 9.45205 21.3807 8.33276 20 8.33276C18.6193 8.33276 17.5 9.45205 17.5 10.8328C17.5 12.2135 18.6193 13.3328 20 13.3328Z" fill="black"/>
</g>
<defs>
<clipPath id="clip0_154_266">
<rect width="40" height="40" fill="white"/>
</clipPath>
</defs>
</svg>
