<svg width="39" height="40" viewBox="0 0 39 40" fill="none" xmlns="http://www.w3.org/2000/svg">
<g clip-path="url(#clip0_154_287)">
<path d="M21.6742 1.38851C21.0775 0.837567 20.3029 0.532715 19.5 0.532715C18.6971 0.532715 17.9225 0.837567 17.3258 1.38851L0 17.3818V34.7152C0 36.1297 0.547856 37.4862 1.52304 38.4864C2.49823 39.4866 3.82087 40.0485 5.2 40.0485H33.8C35.1791 40.0485 36.5018 39.4866 37.477 38.4864C38.4521 37.4862 39 36.1297 39 34.7152V17.3818L21.6742 1.38851ZM24.375 36.7102H14.625V28.3335C14.625 27.0074 15.1386 25.7357 16.0529 24.798C16.9671 23.8603 18.2071 23.3335 19.5 23.3335C20.7929 23.3335 22.0329 23.8603 22.9471 24.798C23.8614 25.7357 24.375 27.0074 24.375 28.3335V36.7102ZM35.75 34.7102C35.75 35.2406 35.5446 35.7493 35.1789 36.1244C34.8132 36.4995 34.3172 36.7102 33.8 36.7102H27.625V28.3335C27.625 26.1234 26.769 24.0038 25.2452 22.441C23.7215 20.8781 21.6549 20.0002 19.5 20.0002C17.3451 20.0002 15.2785 20.8781 13.7548 22.441C12.231 24.0038 11.375 26.1234 11.375 28.3335V36.7102H5.2C4.68283 36.7102 4.18684 36.4995 3.82114 36.1244C3.45545 35.7493 3.25 35.2406 3.25 34.7102V18.8652L19.5 3.86517L35.75 18.8652V34.7102Z" fill="white"/>
</g>
<defs>
<clipPath id="clip0_154_287">
<rect width="39" height="40" fill="white"/>
</clipPath>
</defs>
</svg>
