<svg width="30" height="30" viewBox="0 0 30 30" fill="none" xmlns="http://www.w3.org/2000/svg">
<g clip-path="url(#clip0_223_274)">
<path d="M15.0003 2.49996C16.6584 2.5054 18.299 2.83964 19.8271 3.48332C21.3552 4.12701 22.7405 5.06736 23.9028 6.24996H20.0003C19.6687 6.24996 19.3508 6.38166 19.1164 6.61608C18.8819 6.8505 18.7503 7.16844 18.7503 7.49996C18.7503 7.83149 18.8819 8.14943 19.1164 8.38385C19.3508 8.61827 19.6687 8.74996 20.0003 8.74996H25.179C25.7945 8.74963 26.3848 8.50497 26.82 8.06972C27.2553 7.63447 27.4999 7.04425 27.5003 6.42871V1.24996C27.5003 0.918443 27.3686 0.600501 27.1341 0.36608C26.8997 0.13166 26.5818 -3.65144e-05 26.2503 -3.65144e-05V-3.65144e-05C25.9187 -3.65144e-05 25.6008 0.13166 25.3664 0.36608C25.1319 0.600501 25.0003 0.918443 25.0003 1.24996V3.84746C22.9342 1.98678 20.391 0.737976 17.6554 0.2409C14.9198 -0.256176 12.0998 0.0181034 9.51123 1.03302C6.92268 2.04794 4.66777 3.76343 2.99902 5.98737C1.33026 8.21131 0.313555 10.8559 0.0627531 13.625C0.0466073 13.799 0.0668978 13.9746 0.122332 14.1404C0.177766 14.3062 0.267128 14.4586 0.384724 14.5879C0.50232 14.7173 0.645571 14.8207 0.805351 14.8917C0.96513 14.9626 1.13793 14.9995 1.31275 15V15C1.61849 15.0039 1.91467 14.8935 2.14333 14.6905C2.37198 14.4875 2.51665 14.2065 2.549 13.9025C2.82727 10.7909 4.25897 7.89584 6.56285 5.78601C8.86674 3.67618 11.8763 2.50408 15.0003 2.49996Z" fill="black"/>
<path d="M28.689 15.0003C28.3833 14.9964 28.0871 15.1067 27.8584 15.3097C27.6298 15.5127 27.4851 15.7937 27.4527 16.0978C27.2461 18.4768 26.3614 20.7467 24.9036 22.6381C23.4457 24.5294 21.476 25.9629 19.2279 26.7685C16.9799 27.5741 14.548 27.7179 12.2207 27.1829C9.89338 26.648 7.76836 25.4566 6.09774 23.7503H10.0002C10.3318 23.7503 10.6497 23.6186 10.8841 23.3842C11.1185 23.1498 11.2502 22.8318 11.2502 22.5003C11.2502 22.1688 11.1185 21.8508 10.8841 21.6164C10.6497 21.382 10.3318 21.2503 10.0002 21.2503H4.82149C4.51662 21.2501 4.2147 21.3101 3.933 21.4267C3.65129 21.5433 3.39534 21.7142 3.17976 21.9298C2.96418 22.1454 2.7932 22.4014 2.6766 22.6831C2.56001 22.9648 2.50008 23.2667 2.50024 23.5716V28.7503C2.50024 29.0818 2.63194 29.3998 2.86636 29.6342C3.10078 29.8686 3.41872 30.0003 3.75024 30.0003C4.08177 30.0003 4.39971 29.8686 4.63413 29.6342C4.86855 29.3998 5.00024 29.0818 5.00024 28.7503V26.1528C7.06628 28.0135 9.60951 29.2623 12.3451 29.7594C15.0807 30.2565 17.9007 29.9822 20.4893 28.9673C23.0778 27.9523 25.3327 26.2368 27.0015 24.0129C28.6702 21.789 29.6869 19.1444 29.9377 16.3753C29.9539 16.2012 29.9336 16.0257 29.8782 15.8599C29.8227 15.6941 29.7334 15.5417 29.6158 15.4123C29.4982 15.2829 29.3549 15.1795 29.1951 15.1086C29.0354 15.0376 28.8626 15.0008 28.6877 15.0003H28.689Z" fill="black"/>
</g>
<defs>
<clipPath id="clip0_223_274">
<rect width="30" height="30" fill="white"/>
</clipPath>
</defs>
</svg>
