<?xml version="1.0" encoding="UTF-8" standalone="no" ?>
<!DOCTYPE svg PUBLIC "-//W3C//DTD SVG 1.1//EN" "http://www.w3.org/Graphics/SVG/1.1/DTD/svg11.dtd">
<svg xmlns="http://www.w3.org/2000/svg" xmlns:xlink="http://www.w3.org/1999/xlink" version="1.1" width="1080" height="1080" viewBox="0 0 1080 1080" xml:space="preserve">
<desc>Created with Fabric.js 5.2.4</desc>
<defs>
</defs>
<g transform="matrix(1 0 0 1 540 540)" id="3390a80f-af22-4417-a57c-37e0eb5833a4"  >
<rect style="stroke: none; stroke-width: 1; stroke-dasharray: none; stroke-linecap: butt; stroke-dashoffset: 0; stroke-linejoin: miter; stroke-miterlimit: 4; fill: rgb(255,255,255); fill-rule: nonzero; opacity: 1; visibility: hidden;" vector-effect="non-scaling-stroke"  x="-540" y="-540" rx="0" ry="0" width="1080" height="1080" />
</g>
<g transform="matrix(1 0 0 1 540 540)" id="eaf82f58-6033-46e7-bbf9-a2867b83439a"  >
</g>
<g transform="matrix(1 0 0 1 540 540)" id="ae596497-14c6-4cba-b00a-6e14369da597"  >
<path style="stroke: rgb(0,0,0); stroke-width: 0; stroke-dasharray: none; stroke-linecap: butt; stroke-dashoffset: 0; stroke-linejoin: miter; stroke-miterlimit: 4; fill: rgb(1,0,61); fill-rule: nonzero; opacity: 1;" vector-effect="non-scaling-stroke"  transform=" translate(-480, -576)" d="M 388 976 L 368 850 Q 349 843 328 831 Q 307 819 291 806 L 173 860 L 80 696 L 188 617 Q 186 608 185.5 596.5 Q 185 585 185 576 Q 185 567 185.5 555.5 Q 186 544 188 535 L 80 456 L 173 292 L 291 346 Q 307 333 328 321 Q 349 309 368 303 L 388 176 L 572 176 L 592 302 Q 611 309 632.5 320.5 Q 654 332 669 346 L 787 292 L 880 456 L 772 533 Q 774 543 774.5 554.5 Q 775 566 775 576 Q 775 586 774.5 597 Q 774 608 772 618 L 880 696 L 787 860 L 669 806 Q 653 819 632.5 831.5 Q 612 844 592 850 L 572 976 L 388 976 Z M 480 706 Q 534 706 572 668 Q 610 630 610 576 Q 610 522 572 484 Q 534 446 480 446 Q 426 446 388 484 Q 350 522 350 576 Q 350 630 388 668 Q 426 706 480 706 Z M 480 646 Q 451 646 430.5 625.5 Q 410 605 410 576 Q 410 547 430.5 526.5 Q 451 506 480 506 Q 509 506 529.5 526.5 Q 550 547 550 576 Q 550 605 529.5 625.5 Q 509 646 480 646 Z M 480 576 Z M 436 916 L 524 916 L 538 804 Q 571 796 600.5 779 Q 630 762 654 738 L 760 784 L 800 712 L 706 643 Q 710 626 712.5 609.5 Q 715 593 715 576 Q 715 559 713 542.5 Q 711 526 706 509 L 800 440 L 760 368 L 654 414 Q 631 388 602 370.5 Q 573 353 538 348 L 524 236 L 436 236 L 422 348 Q 388 355 358.5 372 Q 329 389 306 414 L 200 368 L 160 440 L 254 509 Q 250 526 247.5 542.5 Q 245 559 245 576 Q 245 593 247.5 609.5 Q 250 626 254 643 L 160 712 L 200 784 L 306 738 Q 330 762 359.5 779 Q 389 796 422 804 L 436 916 Z" stroke-linecap="round" />
</g>
<g transform="matrix(NaN NaN NaN NaN 0 0)"  >
<g style=""   >
</g>
</g>
<g transform="matrix(NaN NaN NaN NaN 0 0)"  >
<g style=""   >
</g>
</g>
</svg>