<svg width="40" height="40" viewBox="0 0 40 40" fill="none" xmlns="http://www.w3.org/2000/svg">
<g clip-path="url(#clip0_154_288)">
<path d="M25.0006 40H15.0006V34.145C13.2627 33.5301 11.653 32.6001 10.2523 31.4017L5.17896 34.3333L0.178955 25.6667L5.25062 22.7417C4.91747 20.9291 4.91747 19.0709 5.25062 17.2583L0.178955 14.3333L5.17896 5.66667L10.2523 8.59833C11.653 7.39988 13.2627 6.46989 15.0006 5.855V0H25.0006V5.855C26.7385 6.46989 28.3482 7.39988 29.749 8.59833L34.8223 5.66667L39.8223 14.3333L34.7506 17.2583C35.0838 19.0709 35.0838 20.9291 34.7506 22.7417L39.8223 25.6667L34.8223 34.3333L29.749 31.4033C28.3481 32.6012 26.7384 33.5306 25.0006 34.145V40ZM18.334 36.6667H21.6673V31.6217L22.919 31.2983C24.9723 30.7664 26.8413 29.6835 28.324 28.1667L29.229 27.245L33.6006 29.77L35.2673 26.8833L30.9006 24.3617L31.244 23.1183C31.8084 21.0732 31.8084 18.9134 31.244 16.8683L30.9006 15.625L35.2673 13.1033L33.6006 10.2167L29.229 12.7483L28.324 11.8333C26.8405 10.3189 24.9716 9.23837 22.919 8.70833L21.6673 8.37833V3.33333H18.334V8.37833L17.0823 8.70167C15.0289 9.23359 13.16 10.3165 11.6773 11.8333L10.7723 12.755L6.40062 10.2233L4.73395 13.11L9.10062 15.6317L8.75729 16.875C8.19288 18.9201 8.19288 21.0799 8.75729 23.125L9.10062 24.3683L4.73395 26.89L6.40062 29.7767L10.7723 27.2517L11.6773 28.1733C13.1608 29.6878 15.0297 30.7683 17.0823 31.2983L18.334 31.6217V36.6667ZM20.0006 26.6667C18.6821 26.6667 17.3931 26.2757 16.2968 25.5431C15.2005 24.8106 14.346 23.7694 13.8414 22.5512C13.3368 21.333 13.2048 19.9926 13.4621 18.6994C13.7193 17.4062 14.3542 16.2183 15.2866 15.286C16.2189 14.3536 17.4068 13.7187 18.7 13.4614C19.9932 13.2042 21.3337 13.3362 22.5518 13.8408C23.77 14.3454 24.8112 15.1999 25.5438 16.2962C26.2763 17.3925 26.6673 18.6815 26.6673 20C26.6673 21.7681 25.9649 23.4638 24.7147 24.714C23.4644 25.9643 21.7687 26.6667 20.0006 26.6667ZM20.0006 16.6667C19.3414 16.6667 18.6969 16.8622 18.1487 17.2284C17.6006 17.5947 17.1733 18.1153 16.921 18.7244C16.6687 19.3335 16.6027 20.0037 16.7313 20.6503C16.86 21.2969 17.1774 21.8908 17.6436 22.357C18.1098 22.8232 18.7037 23.1407 19.3503 23.2693C19.9969 23.3979 20.6671 23.3319 21.2762 23.0796C21.8853 22.8273 22.4059 22.4001 22.7722 21.8519C23.1385 21.3037 23.334 20.6593 23.334 20C23.334 19.1159 22.9828 18.2681 22.3576 17.643C21.7325 17.0179 20.8847 16.6667 20.0006 16.6667Z" fill="white"/>
</g>
<defs>
<clipPath id="clip0_154_288">
<rect width="40" height="40" fill="white"/>
</clipPath>
</defs>
</svg>
