<svg width="30" height="30" viewBox="0 0 30 30" fill="none" xmlns="http://www.w3.org/2000/svg">
<path d="M19.6376 15.8875C20.8631 14.9233 21.7576 13.6011 22.1967 12.1049C22.6357 10.6087 22.5975 9.0128 22.0874 7.53931C21.5772 6.06581 20.6204 4.78796 19.3502 3.88354C18.08 2.97912 16.5594 2.4931 15.0001 2.4931C13.4408 2.4931 11.9203 2.97912 10.65 3.88354C9.3798 4.78796 8.42305 6.06581 7.91288 7.53931C7.40272 9.0128 7.36451 10.6087 7.80357 12.1049C8.24263 13.6011 9.13713 14.9233 10.3626 15.8875C8.26272 16.7288 6.43048 18.1242 5.06123 19.9249C3.69199 21.7256 2.83707 23.8641 2.58762 26.1125C2.56956 26.2766 2.58401 26.4427 2.63015 26.6013C2.67629 26.7599 2.7532 26.9078 2.85651 27.0366C3.06514 27.2968 3.3686 27.4635 3.70012 27.5C4.03164 27.5364 4.36407 27.4397 4.62427 27.2311C4.88448 27.0224 5.05115 26.719 5.08762 26.3875C5.3621 23.944 6.52723 21.6872 8.36039 20.0485C10.1936 18.4097 12.5662 17.5038 15.0251 17.5038C17.484 17.5038 19.8567 18.4097 21.6898 20.0485C23.523 21.6872 24.6881 23.944 24.9626 26.3875C24.9966 26.6946 25.1432 26.9783 25.374 27.1837C25.6048 27.3892 25.9036 27.5018 26.2126 27.5H26.3501C26.6778 27.4623 26.9773 27.2966 27.1833 27.039C27.3894 26.7815 27.4853 26.4529 27.4501 26.125C27.1995 23.8702 26.34 21.7262 24.9637 19.9227C23.5874 18.1193 21.7463 16.7243 19.6376 15.8875V15.8875ZM15.0001 15C14.0112 15 13.0445 14.7067 12.2223 14.1573C11.4 13.6079 10.7592 12.827 10.3807 11.9134C10.0023 10.9998 9.90326 9.99443 10.0962 9.02452C10.2891 8.05462 10.7653 7.1637 11.4646 6.46444C12.1638 5.76518 13.0548 5.28897 14.0247 5.09605C14.9946 4.90312 15.9999 5.00214 16.9135 5.38058C17.8272 5.75901 18.6081 6.39988 19.1575 7.22212C19.7069 8.04437 20.0001 9.01107 20.0001 9.99997C20.0001 11.3261 19.4733 12.5978 18.5357 13.5355C17.598 14.4732 16.3262 15 15.0001 15Z" fill="#022C4E"/>
</svg>
